<?xml version="1.0" encoding="UTF-8"?><svg id="_イヤー_1" xmlns="http://www.w3.org/2000/svg" viewBox="0 0 291.42 63.89"><defs><style>.cls-1{fill:#fff;}</style></defs><path class="cls-1" d="M4.83,38.57c0,4,1.79,6.62,8.35,6.62s8.28-2.62,8.28-6.62V2.97c0-.69,.28-1.04,.97-1.04h2.9c.76,0,1.04,.35,1.04,1.04V39.33c0,5.52-2.69,10.07-13.18,10.07S0,44.85,0,39.33v-3.1c0-.76,.28-1.1,1.04-1.1H3.86c.69,0,.97,.34,.97,1.1v2.35Z"/><path class="cls-1" d="M35.12,23.11c0-5.31,3.52-8.9,12.97-8.9s13.04,3.59,13.04,8.9v17.39c0,5.31-3.59,8.9-13.04,8.9s-12.97-3.59-12.97-8.9V23.11Zm21.25,.35c0-3.24-2.14-5.31-8.28-5.31s-8.21,2.07-8.21,5.31v16.7c0,3.24,2.14,5.31,8.21,5.31s8.28-2.07,8.28-5.31V23.46Z"/><path class="cls-1" d="M74.31,8.07c0,.69-.28,1.04-.97,1.04h-2.76c-.76,0-1.04-.35-1.04-1.04V1.66c0-.69,.28-1.03,1.04-1.03h2.76c.69,0,.97,.34,.97,1.03v6.42Zm0,39.74c0,.69-.28,1.04-.97,1.04h-2.76c-.76,0-1.04-.35-1.04-1.04V15.8c0-.69,.28-1.03,1.04-1.03h2.76c.69,0,.97,.34,.97,1.03V47.82Z"/><path class="cls-1" d="M88.11,15.8l.14,2.62c1.93-1.66,5.93-4.21,11.8-4.21,6.42,0,9.52,3.59,9.52,8.49v25.12c0,.69-.28,1.04-.97,1.04h-2.76c-.69,0-1.04-.35-1.04-1.04V23.74c0-3.1-1.66-5.24-6.07-5.24-5.11,0-8.83,2.62-10.42,3.86v25.46c0,.69-.28,1.04-.97,1.04h-2.76c-.76,0-1.04-.35-1.04-1.04V15.8c0-.69,.28-1.03,1.04-1.03h2.48c.76,0,.97,.34,1.04,1.03Z"/><path class="cls-1" d="M128.3,8.9c0-5.31,3.45-8.9,12.9-8.9h.41c.69,0,1.04,.28,1.04,1.03V3.04c0,.76-.34,1.03-1.04,1.03h-.41c-6.14,0-7.94,2.07-7.94,5.31V54.51c0,3.24,1.79,5.31,7.94,5.31h.41c.69,0,1.04,.28,1.04,1.03v2c0,.76-.34,1.04-1.04,1.04h-.41c-9.45,0-12.9-3.59-12.9-8.9V8.9Z"/><path class="cls-1" d="M179.64,39.33c0,5.52-3.17,10.07-14.56,10.07s-14.56-4.55-14.56-10.07V11.45c0-5.52,3.17-10.07,14.56-10.07s14.56,4.55,14.56,10.07v3.52c0,.76-.28,1.1-.97,1.1h-2.76c-.76,0-1.03-.35-1.03-1.1v-2.76c0-4-2.42-6.62-9.73-6.62s-9.73,2.62-9.73,6.62v26.36c0,4,2.42,6.62,9.73,6.62s9.73-2.62,9.73-6.62v-3.66c0-.69,.28-1.04,1.03-1.04h2.76c.69,0,.97,.35,.97,1.04v4.42Z"/><path class="cls-1" d="M208.75,54.72c.69,0,1.04,.28,1.04,.97v2.07c0,.69-.34,.97-1.04,.97h-24.77c-.69,0-.97-.28-.97-.97v-2.07c0-.69,.28-.97,.97-.97h24.77Z"/><path class="cls-1" d="M244.15,39.33c0,5.52-3.17,10.07-14.56,10.07s-14.56-4.55-14.56-10.07V11.45c0-5.52,3.17-10.07,14.56-10.07s14.56,4.55,14.56,10.07v3.52c0,.76-.28,1.1-.97,1.1h-2.76c-.76,0-1.04-.35-1.04-1.1v-2.76c0-4-2.42-6.62-9.73-6.62s-9.73,2.62-9.73,6.62v26.36c0,4,2.42,6.62,9.73,6.62s9.73-2.62,9.73-6.62v-3.66c0-.69,.28-1.04,1.04-1.04h2.76c.69,0,.97,.35,.97,1.04v4.42Z"/><path class="cls-1" d="M264.37,54.99c0,5.31-3.45,8.9-12.9,8.9h-.34c-.76,0-1.04-.28-1.04-1.04v-2c0-.76,.28-1.03,1.04-1.03h.34c6.14,0,8-2.07,8-5.31V9.38c0-3.24-1.86-5.31-8-5.31h-.34c-.76,0-1.04-.28-1.04-1.03V1.03c0-.76,.28-1.03,1.04-1.03h.34c9.45,0,12.9,3.59,12.9,8.9V54.99Z"/><path class="cls-1" d="M276.51,58.03c-.21,.69-.48,1.03-1.24,1.03h-3.11c-.62,0-.97-.41-.76-1.03L286.31,1.66c.21-.69,.48-1.03,1.17-1.03h3.1c.76,0,.97,.34,.76,1.03l-14.84,56.37Z"/></svg>