<svg id="_イヤー_1" xmlns="http://www.w3.org/2000/svg" viewBox="0 0 313.22 70.52"><defs><style>.txtjoin_01{fill:#fff;}</style></defs><path class="txtjoin_01" d="M21.11,6.49V43.47c0,3.66-1.45,12.77-15.46,12.77-1.17,0-2.97,0-5.66-.62v-8.97c2.48,.55,3.45,.69,4.83,.69,7.04,0,7.31-4.69,7.31-8.35V6.49h8.97Z"/><path class="txtjoin_01" d="M43.12,56.24c-12.56,0-17.94-10.01-17.94-18.42s5.45-18.15,17.66-18.15c7.52,0,17.73,5.04,17.8,18.15,0,9.25-5.8,18.42-17.53,18.42Zm0-7.59c6.07,0,8.9-5.17,8.9-10.42,0-5.52-2.97-11.11-9.31-11.11-4.83,0-8.9,3.52-8.9,10.49,0,6.07,3.38,11.04,9.31,11.04Z"/><path class="txtjoin_01" d="M64.72,15.32V6.97h8.21V15.32h-8.21Zm0,39.88V20.7h8.21V55.2h-8.21Z"/><path class="txtjoin_01" d="M87.42,20.7v4.07c3.1-4.69,9.25-5.11,10.63-5.11,7.31,0,11.18,4.76,11.18,11.52v24.01h-8.14v-19.39c0-3.79-.97-8.07-6.07-8.07-.9,0-2.62,.14-4.35,1.59-2.48,2.07-3.24,4.97-3.24,10.9v14.97h-8.35V20.7h8.35Z"/><path class="txtjoin_01" d="M140.17,66.52c-3.79-2.76-6.97-5.93-9.52-9.18-5.31-6.83-8-15.04-8-23.94s2.62-16.9,7.31-23.39c2.76-3.73,5.59-6.76,9.94-10l3.17,3.52c-2.83,2.9-3.73,3.93-5.24,6-4.35,6.14-6.69,14.28-6.69,23.12,0,12.35,4.55,23.6,12.08,29.81l-3.04,4.07Z"/><path class="txtjoin_01" d="M186.33,41.61c-1.59,4.14-7.04,14.84-21.04,14.84-11.52,0-22.77-7.87-22.77-26.08,0-10.83,6.14-25.12,23.12-25.12,12.56,0,17.73,8.07,19.8,15.04l-9.04,2.35c-.55-5.31-5.04-9.04-10.42-9.04-7.94,0-13.59,6.07-13.59,16.9,0,6.62,2.69,17.32,13.52,17.32,6.28,0,10.35-4.83,11.8-9.8l8.62,3.59Z"/><path class="txtjoin_01" d="M183.99,70.52v-6.35h35.88v6.35h-35.88Z"/><path class="txtjoin_01" d="M262.78,41.61c-1.59,4.14-7.04,14.84-21.04,14.84-11.52,0-22.77-7.87-22.77-26.08,0-10.83,6.14-25.12,23.12-25.12,12.56,0,17.73,8.07,19.8,15.04l-9.04,2.35c-.55-5.31-5.04-9.04-10.42-9.04-7.94,0-13.59,6.07-13.59,16.9,0,6.62,2.69,17.32,13.52,17.32,6.28,0,10.35-4.83,11.8-9.8l8.62,3.59Z"/><path class="txtjoin_01" d="M264.09,0c4,3.04,6.9,5.87,9.45,9.18,5.24,6.9,8,14.97,8,23.94,0,8.35-2.62,16.7-7.38,23.39-2.62,3.73-5.45,6.56-9.94,10l-3.17-3.52c2.83-2.9,3.8-3.93,5.24-6,4.35-6.14,6.76-14.28,6.76-23.18,0-12.35-4.49-23.46-12.01-29.74l3.04-4.07Z"/><path class="txtjoin_01" d="M290.11,55.2h-8.21l23.12-48.71h8.21l-23.12,48.71Z"/></svg>