<?xml version="1.0" encoding="UTF-8"?><svg id="_イヤー_1" xmlns="http://www.w3.org/2000/svg" viewBox="0 0 354.97 62.93"><defs><style>.cls-1{fill:#fff;}</style></defs><path class="cls-1" d="M28.08,1.04V37.6c0,3.4-.55,6.13-1.66,8.18-1.1,2.05-2.4,3.61-3.9,4.69-1.5,1.08-3.03,1.79-4.59,2.14-1.56,.34-2.83,.52-3.79,.52-2.58,0-4.73-.48-6.45-1.45-1.72-.97-3.05-1.95-3.97-2.97-1.2-1.33-2.06-2.78-2.59-4.35-.53-1.56-.91-2.99-1.14-4.28H9.52c.64,2.81,2.14,4.21,4.48,4.21,1.01,0,1.83-.22,2.45-.66,.62-.44,1.09-.97,1.42-1.59,.32-.62,.53-1.29,.62-2,.09-.71,.14-1.32,.14-1.83V1.04h9.45Z"/><path class="cls-1" d="M53.41,53.34c-2.85,0-5.52-.54-8-1.62-2.48-1.08-4.65-2.55-6.49-4.42-1.84-1.86-3.29-4.02-4.35-6.49-1.06-2.46-1.59-5.07-1.59-7.83,0-2.9,.55-5.6,1.66-8.11,1.1-2.51,2.59-4.67,4.45-6.49,1.86-1.82,4.02-3.25,6.49-4.31,2.46-1.06,5.07-1.59,7.83-1.59s5.29,.51,7.73,1.52c2.44,1.01,4.59,2.43,6.45,4.24,1.86,1.82,3.35,3.97,4.45,6.45,1.1,2.48,1.66,5.2,1.66,8.14,0,3.13-.56,5.96-1.69,8.49-1.13,2.53-2.62,4.68-4.48,6.45-1.86,1.77-4.01,3.14-6.45,4.11-2.44,.97-4.99,1.45-7.66,1.45Zm0-8.42c1.66,0,3.17-.33,4.55-1,1.38-.67,2.55-1.55,3.52-2.66s1.71-2.37,2.24-3.79c.53-1.43,.79-2.9,.79-4.42,0-1.75-.31-3.36-.93-4.83-.62-1.47-1.45-2.75-2.48-3.83-1.03-1.08-2.22-1.93-3.55-2.55-1.33-.62-2.71-.93-4.14-.93-1.2,0-2.45,.25-3.76,.76-1.31,.51-2.52,1.27-3.62,2.28-1.1,1.01-2.02,2.28-2.76,3.79-.74,1.52-1.1,3.27-1.1,5.24,0,1.79,.31,3.43,.93,4.9,.62,1.47,1.46,2.73,2.52,3.76,1.06,1.04,2.25,1.84,3.59,2.42,1.33,.58,2.74,.86,4.21,.86Z"/><path class="cls-1" d="M77.35,1.04h9.18V9.45h-9.18V1.04Zm0,12.77h9.18V52.1h-9.18V13.8Z"/><path class="cls-1" d="M92.25,13.8h8.49v3.31c.37-.37,.85-.82,1.45-1.35,.6-.53,1.32-1.03,2.17-1.52,.85-.48,1.84-.9,2.97-1.24,1.13-.35,2.43-.52,3.9-.52,.83,0,1.75,.09,2.76,.28,1.01,.18,2.04,.5,3.07,.93,1.04,.44,2.05,.99,3.04,1.66,.99,.67,1.87,1.48,2.66,2.45,.87,1.06,1.55,2.22,2.04,3.48,.48,1.27,.83,2.52,1.04,3.76,.21,1.24,.33,2.43,.38,3.55,.04,1.13,.07,2.06,.07,2.79v20.7h-9.18v-18.91c0-.78-.05-1.86-.14-3.24-.09-1.38-.38-2.74-.86-4.07-.48-1.33-1.24-2.49-2.28-3.48-1.04-.99-2.52-1.48-4.45-1.48-.83,0-1.88,.24-3.14,.72-1.27,.48-2.31,1.37-3.14,2.66-.41,.6-.74,1.28-.97,2.04-.23,.76-.39,1.56-.48,2.42-.09,.85-.15,1.71-.17,2.59-.02,.87-.04,1.73-.04,2.55v18.22h-9.18V13.8Z"/><path class="cls-1" d="M161.84,62.93c-.64-.23-1.31-.48-2-.76-.69-.28-1.44-.66-2.24-1.14-.81-.48-1.65-1.08-2.52-1.79-.87-.71-1.82-1.62-2.83-2.73-.74-.83-1.65-1.98-2.73-3.45s-2.12-3.27-3.1-5.38c-.99-2.12-1.84-4.51-2.55-7.18-.71-2.67-1.07-5.63-1.07-8.9,0-5.11,.92-9.9,2.76-14.39,1.84-4.48,4.35-8.31,7.52-11.49,1.66-1.61,3.21-2.82,4.66-3.62,1.45-.8,2.82-1.48,4.11-2.04V10.01c-1.7,1.38-3.16,2.92-4.38,4.62-1.22,1.7-2.21,3.48-2.97,5.35-.76,1.86-1.32,3.77-1.69,5.73-.37,1.96-.55,3.9-.55,5.83,0,2.85,.33,5.46,1,7.83,.67,2.37,1.49,4.46,2.48,6.28,.99,1.82,2.04,3.35,3.14,4.59,1.1,1.24,2.09,2.16,2.97,2.76v9.94Z"/><path class="cls-1" d="M214.76,37.88c-1.01,2.35-2.35,4.46-4,6.35-1.66,1.89-3.53,3.48-5.62,4.8-2.09,1.31-4.34,2.32-6.73,3.04-2.39,.71-4.81,1.07-7.25,1.07-3.68,0-7.14-.71-10.38-2.14s-6.07-3.37-8.49-5.83c-2.42-2.46-4.31-5.31-5.69-8.56-1.38-3.24-2.07-6.66-2.07-10.25s.68-6.84,2.04-10.04c1.36-3.2,3.23-6,5.62-8.42,2.39-2.42,5.2-4.34,8.42-5.76,3.22-1.43,6.67-2.14,10.35-2.14,2.12,0,4.34,.29,6.66,.86,2.32,.58,4.56,1.48,6.73,2.73,2.16,1.24,4.17,2.85,6.04,4.83,1.86,1.98,3.42,4.37,4.66,7.18h-10.76c-1.84-2.12-3.86-3.77-6.07-4.97-2.21-1.2-4.74-1.79-7.59-1.79-2.07,0-4.11,.44-6.11,1.31-2,.87-3.77,2.1-5.31,3.69-1.54,1.59-2.79,3.46-3.76,5.62-.97,2.16-1.45,4.51-1.45,7.04,0,2.39,.46,4.67,1.38,6.83,.92,2.16,2.16,4.05,3.73,5.66,1.56,1.61,3.37,2.9,5.42,3.86,2.05,.97,4.2,1.45,6.45,1.45,1.7,0,3.22-.22,4.55-.66,1.33-.44,2.52-.99,3.55-1.66,1.03-.67,1.94-1.37,2.73-2.1,.78-.74,1.45-1.4,2-2h10.97Z"/><path class="cls-1" d="M214.28,60.72v-3.45h34.5v3.45h-34.5Z"/><path class="cls-1" d="M299.63,37.88c-1.01,2.35-2.35,4.46-4,6.35-1.66,1.89-3.53,3.48-5.62,4.8-2.09,1.31-4.34,2.32-6.73,3.04-2.39,.71-4.81,1.07-7.25,1.07-3.68,0-7.14-.71-10.38-2.14-3.24-1.43-6.07-3.37-8.49-5.83-2.42-2.46-4.31-5.31-5.69-8.56-1.38-3.24-2.07-6.66-2.07-10.25s.68-6.84,2.04-10.04c1.36-3.2,3.23-6,5.62-8.42,2.39-2.42,5.2-4.34,8.42-5.76,3.22-1.43,6.67-2.14,10.35-2.14,2.12,0,4.33,.29,6.66,.86,2.32,.58,4.56,1.48,6.73,2.73,2.16,1.24,4.17,2.85,6.04,4.83,1.86,1.98,3.42,4.37,4.66,7.18h-10.76c-1.84-2.12-3.86-3.77-6.07-4.97-2.21-1.2-4.74-1.79-7.59-1.79-2.07,0-4.11,.44-6.11,1.31-2,.87-3.77,2.1-5.31,3.69-1.54,1.59-2.79,3.46-3.76,5.62-.97,2.16-1.45,4.51-1.45,7.04,0,2.39,.46,4.67,1.38,6.83,.92,2.16,2.16,4.05,3.73,5.66,1.56,1.61,3.37,2.9,5.42,3.86,2.05,.97,4.2,1.45,6.45,1.45,1.7,0,3.22-.22,4.55-.66,1.33-.44,2.52-.99,3.55-1.66,1.03-.67,1.94-1.37,2.72-2.1,.78-.74,1.45-1.4,2-2h10.97Z"/><path class="cls-1" d="M301.7,.07c.6,.23,1.25,.48,1.97,.76,.71,.28,1.46,.66,2.24,1.14s1.62,1.08,2.52,1.79c.9,.71,1.85,1.62,2.86,2.73,.74,.83,1.64,1.98,2.73,3.45,1.08,1.47,2.12,3.27,3.11,5.38,.99,2.12,1.84,4.52,2.55,7.21,.71,2.69,1.07,5.65,1.07,8.87,0,5.11-.92,9.9-2.76,14.39s-4.35,8.31-7.52,11.49c-1.66,1.61-3.21,2.82-4.66,3.62-1.45,.8-2.82,1.48-4.11,2.04v-9.94c1.7-1.38,3.16-2.92,4.38-4.62,1.22-1.7,2.21-3.48,2.97-5.35,.76-1.86,1.32-3.77,1.69-5.73,.37-1.96,.55-3.9,.55-5.83,0-2.85-.33-5.46-1-7.83-.67-2.37-1.5-4.46-2.48-6.28-.99-1.82-2.04-3.33-3.14-4.55-1.1-1.22-2.09-2.15-2.97-2.79V.07Z"/><path class="cls-1" d="M345.65,1.04h9.32l-21.67,57.96h-9.25L345.65,1.04Z"/></svg>