<?xml version="1.0" encoding="UTF-8"?><svg id="_イヤー_1" xmlns="http://www.w3.org/2000/svg" viewBox="0 0 403.47 65.69"><defs><style>.cls-1{fill:#fff;}</style></defs><path class="cls-1" d="M39.4,40.43c-.41,14.63-15.59,16.01-19.46,16.01-8,0-19.94-3.31-19.94-13.18,0-4.49,3.1-8.28,7.73-8.28,4,0,8,2.48,8,6.83,0,1.17-.48,2.35-.48,3.24,0,1.73,1.38,2.69,3.04,2.55,8.14-.83,4.28-14.9,4.83-27.32,.35-7.66-6.21-3.59-6.21-8.21,0-1.31,.55-5.73,14.01-5.73s14.56,3.17,14.56,5.11c0,3.59-5.38,1.93-5.52,7.73l-.55,21.25Z"/><path class="cls-1" d="M45.47,39.54c0-12.35,10.83-19.32,22.22-19.32,12.07,0,18.97,9.45,18.97,18.01,0,11.32-12.14,18.22-22.29,18.22s-18.91-6-18.91-16.9Zm19.25-11.18c-2.28,0-3.52,2.14-3.38,4.14,.28,4.35,1.52,14.97,6.28,15.25,2.62,.14,3.17-2.07,3.17-4.28,0-3.1-1.38-15.11-6.07-15.11Z"/><path class="cls-1" d="M107.23,42.71c0,8.14,4.07,5.18,4.07,8.83,0,4.69-8.76,4.69-11.87,4.69-11.87,0-12.35-2.69-12.35-4.35,0-2.48,2.83-2.62,3.66-4.76,.9-2.42,1.04-12.42,.28-14.97-.62-2.42-4.14-1.66-4.14-4.76,0-4.9,17.53-6.97,18.22-6.97,2.07,0,2.14,1.59,2.14,3.04v19.25Zm-13.66-24.5c-2.9,0-6-1.31-6-4.69,0-4.55,9.11-6.42,12.63-6.42,2.76,0,6.69,.9,6.69,4.35,0,5.38-9.38,6.76-13.32,6.76Z"/><path class="cls-1" d="M130.89,43.95c0,6.69,2.35,5.52,2.35,8.14,0,4.28-9.18,4.14-12.01,4.14s-9.8,0-9.8-4.14c0-3.31,3.17-.35,3.38-7.11l.28-10.35c.14-5.11-4.07-3.45-4.07-7.11s15.87-7.11,17.25-7.11c1.52,0,2.48,1.31,2.48,2.69,0,.41-.07,.83-.07,1.24,0,.83,.34,1.79,1.38,1.79,1.1,0,1.73-1.45,3.1-2.9,1.38-1.38,3.45-2.83,7.38-2.83,14.28,0,11.87,14.01,12.56,24.5,.35,5.45,3.17,4.21,3.17,7.18,0,1.24,.28,4.14-12.7,4.14-2.48,0-9.11,.14-9.11-3.73,0-2.48,2.28-1.31,2.62-5.8,.35-4.9,2.28-15.94-4.21-15.94-4.42,0-4,4.76-4,7.87v5.31Z"/><path class="cls-1" d="M194.47,0c6.9,0,7.73,1.86,7.73,3.59s-.76,3.45-2.62,3.45c-2.48,0-3.17-.35-3.86-.35-8.21,0-9.18,18.77-9.18,24.63s.97,24.63,9.18,24.63c.69,0,1.38-.34,3.86-.34,1.86,0,2.62,1.72,2.62,3.45s-.83,3.59-7.73,3.59c-16.08,0-22.91-17.11-22.91-31.33S178.4,0,194.47,0Z"/><path class="cls-1" d="M229.73,6.14c6.76,0,11.11,3.38,12.9,3.38,1.52,0,1.93-.48,3.1-.48,2.9,0,6.62,4.35,6.62,12.01,0,3.93-2.35,7.25-6.42,7.25-7.11,0-5.31-12.21-17.59-12.21-5.31,0-7.52,4.97-7.52,8.76,0,10.21,5.45,18.91,15.11,18.91,8.76,0,10.07-4.76,12.21-4.76,2,0,2.97,2.35,2.97,4.07,0,3.04-3.17,9.38-6.62,9.38-2.35,0-7.18,4-15.32,4-14.49,0-26.36-11.45-26.36-25.32s13.32-24.98,26.91-24.98Z"/><path class="cls-1" d="M286.11,60.65v3.45h-34.5v-3.45h34.5Z"/><path class="cls-1" d="M312.95,6.14c6.76,0,11.11,3.38,12.9,3.38,1.52,0,1.93-.48,3.1-.48,2.9,0,6.62,4.35,6.62,12.01,0,3.93-2.35,7.25-6.42,7.25-7.11,0-5.31-12.21-17.6-12.21-5.31,0-7.52,4.97-7.52,8.76,0,10.21,5.45,18.91,15.11,18.91,8.76,0,10.07-4.76,12.21-4.76,2,0,2.97,2.35,2.97,4.07,0,3.04-3.17,9.38-6.62,9.38-2.35,0-7.18,4-15.32,4-14.49,0-26.36-11.45-26.36-25.32s13.32-24.98,26.91-24.98Z"/><path class="cls-1" d="M343.24,62.65c-6.9,0-7.73-1.86-7.73-3.59s.76-3.45,2.62-3.45c2.48,0,3.17,.34,3.86,.34,8.21,0,9.18-18.77,9.18-24.63s-.97-24.63-9.18-24.63c-.69,0-1.38,.35-3.86,.35-1.86,0-2.62-1.73-2.62-3.45s.83-3.59,7.73-3.59c16.08,0,22.91,17.11,22.91,31.33s-6.83,31.33-22.91,31.33Z"/><path class="cls-1" d="M378.98,59.34c-2.42,4.9-2.14,6.35-5.24,6.35-1.73,0-5.93-.28-5.93-2.55,0-1.59,3.52-6.69,7.31-14.42l17.18-35.26c2.42-4.9,2.14-6.35,5.24-6.35,1.72,0,5.93,.28,5.93,2.55,0,1.59-3.52,6.69-7.31,14.42l-17.18,35.26Z"/></svg>