<?xml version="1.0" encoding="UTF-8"?><svg id="_イヤー_1" xmlns="http://www.w3.org/2000/svg" viewBox="0 0 341.99 66.24"><defs><style>.cls-1{fill:#fff;}</style></defs><path class="cls-1" d="M16.81,8.36l-1.08-.98-4.85-.34V3.67H31.2v3.37l-4.21,.34-1.08,.98V31.87c0,6.56-1.29,11.35-3.87,14.39s-6.65,4.55-12.2,4.55c-1.6,0-3.21-.14-4.85-.42-1.64-.28-3.3-.7-4.99-1.26v-12.4H5.02l1.58,9.1,.98,.91c.11,0,.3,.01,.56,.03,.26,.02,.44,.03,.56,.03,2.92,0,5-1.12,6.25-3.35,1.25-2.23,1.87-6.07,1.87-11.51V8.36Z"/><path class="cls-1" d="M49.92,15.53c5.3,0,9.51,1.6,12.63,4.8,3.12,3.2,4.68,7.53,4.68,12.99,0,5.17-1.63,9.32-4.88,12.47-3.26,3.15-7.58,4.72-12.97,4.72s-9.37-1.59-12.55-4.77c-3.18-3.18-4.77-7.36-4.77-12.55s1.63-9.6,4.89-12.82,7.58-4.83,12.97-4.83Zm-.27,3.67c-2.52,0-4.48,1.2-5.9,3.6-1.42,2.4-2.12,5.77-2.12,10.11s.7,7.83,2.11,10.28c1.4,2.45,3.35,3.67,5.84,3.67s4.62-1.19,6.03-3.57c1.42-2.38,2.12-5.77,2.12-10.17s-.71-7.79-2.14-10.24c-1.43-2.45-3.41-3.67-5.95-3.67Z"/><path class="cls-1" d="M79.53,15.73h3.34v29.82l1.01,1.04,3.87,.27v3.1h-18.09v-3.1l3.74-.27,.98-1.04V21.73h-4.55v-2.76l9.7-3.23Zm-.74-15.73c1.5,0,2.74,.48,3.71,1.43s1.45,2.16,1.45,3.62-.48,2.78-1.43,3.76c-.96,.98-2.17,1.47-3.66,1.47s-2.64-.48-3.6-1.45c-.97-.97-1.45-2.18-1.45-3.64s.48-2.72,1.43-3.71c.95-.99,2.14-1.48,3.55-1.48Z"/><path class="cls-1" d="M89.06,49.96v-3.1l3.54-.27,.98-1.04V21.73h-4.72v-2.76l9.94-3.23h3.34v4.08c2.63-1.46,4.9-2.53,6.81-3.2,1.91-.67,3.57-1.01,4.99-1.01,3.14,0,5.49,.94,7.04,2.83s2.33,4.76,2.33,8.62v18.5l.91,1.04,3.64,.27v3.1h-16.88v-3.1l2.96-.27,.94-1.04V29.04c0-2.56-.49-4.44-1.48-5.64s-2.56-1.8-4.72-1.8c-.83,0-1.79,.1-2.88,.3-1.09,.2-2.31,.49-3.66,.88v22.78l.94,1.04,3.03,.27v3.1h-17.05Z"/><path class="cls-1" d="M163.09,.44V3.94c-4.22,.56-7.32,2.97-9.28,7.23-1.97,4.26-2.95,10.65-2.95,19.19s1,14.55,3.02,18.8c2.01,4.25,5.08,6.6,9.21,7.08v3.54c-6.45-.25-11.46-2.95-15.03-8.1-3.57-5.15-5.36-12.28-5.36-21.38s1.76-16.5,5.29-21.68c3.53-5.18,8.56-7.9,15.09-8.17Z"/><path class="cls-1" d="M205.74,48.31c-2.31,.83-4.68,1.45-7.09,1.87-2.41,.42-4.88,.62-7.39,.62s-4.75-.26-6.91-.79c-2.16-.53-4.09-1.31-5.79-2.34-3.59-2.13-6.4-5.04-8.42-8.71-2.02-3.67-3.03-7.71-3.03-12.11,0-3.53,.61-6.79,1.84-9.8,1.22-3.01,3-5.63,5.34-7.85,2.18-2.11,4.72-3.7,7.63-4.77,2.91-1.07,6.16-1.6,9.75-1.6,2.31,0,4.64,.21,6.99,.64,2.35,.43,4.71,1.07,7.09,1.92v11.52h-5.05l-1.38-7.38-.94-1.18c-.94-.34-1.87-.59-2.78-.77-.91-.18-1.8-.27-2.68-.27-4.81,0-8.62,1.75-11.44,5.24-2.82,3.49-4.23,8.24-4.23,14.23s1.47,10.97,4.41,14.45c2.94,3.48,7,5.22,12.16,5.22,.56,0,1.2-.06,1.9-.17,.71-.11,1.47-.27,2.27-.47l1.04-1.04,1.65-8.32h5.05v11.86Z"/><path class="cls-1" d="M241.07,60.44v5.79h-34.5v-5.79h34.5Z"/><path class="cls-1" d="M280.82,48.31c-2.31,.83-4.68,1.45-7.09,1.87-2.42,.42-4.88,.62-7.4,.62s-4.75-.26-6.91-.79c-2.16-.53-4.09-1.31-5.79-2.34-3.59-2.13-6.4-5.04-8.42-8.71-2.02-3.67-3.03-7.71-3.03-12.11,0-3.53,.61-6.79,1.84-9.8,1.22-3.01,3-5.63,5.34-7.85,2.18-2.11,4.72-3.7,7.63-4.77,2.91-1.07,6.16-1.6,9.75-1.6,2.31,0,4.64,.21,6.99,.64,2.35,.43,4.71,1.07,7.09,1.92v11.52h-5.05l-1.38-7.38-.94-1.18c-.94-.34-1.87-.59-2.78-.77-.91-.18-1.8-.27-2.68-.27-4.81,0-8.62,1.75-11.44,5.24s-4.23,8.24-4.23,14.23,1.47,10.97,4.41,14.45c2.94,3.48,7,5.22,12.16,5.22,.56,0,1.2-.06,1.9-.17,.71-.11,1.46-.27,2.27-.47l1.04-1.04,1.65-8.32h5.05v11.86Z"/><path class="cls-1" d="M284.22,.44c6.38,.31,11.33,3.05,14.86,8.22,3.53,5.17,5.29,12.31,5.29,21.43s-1.76,16.3-5.29,21.48c-3.53,5.18-8.48,7.91-14.86,8.2v-3.54c4.18-.54,7.25-2.93,9.23-7.16,1.98-4.23,2.96-10.58,2.96-19.05s-.99-14.76-2.98-19-5.06-6.6-9.21-7.08V.44Z"/><path class="cls-1" d="M336.81,3.67h5.19l-29.21,52.69h-5.15L336.81,3.67Z"/></svg>