<?xml version="1.0" encoding="UTF-8"?><svg id="_イヤー_1" xmlns="http://www.w3.org/2000/svg" viewBox="0 0 311.01 62.79"><defs><style>.cls-1{fill:#fff;}</style></defs><path class="cls-1" d="M2.42,58.31c.64-.41,1.17-.9,1.59-1.45,.41-.55,.72-1.24,.93-2.07,.21-.83,.36-1.86,.45-3.1,.18-2.85,.32-5.76,.41-8.73,.09-2.97,.14-6.36,.14-10.18v-9.38c0-3.82-.05-7.21-.14-10.18-.09-2.97-.23-5.94-.41-8.94,.78,.09,1.63,.17,2.55,.24,.92,.07,1.95,.1,3.1,.1s2.18-.03,3.1-.1c.92-.07,1.77-.15,2.55-.24-.18,2.99-.32,5.97-.41,8.94-.09,2.97-.14,6.36-.14,10.18v9.38c0,1.93,.02,3.96,.07,6.07,.05,2.12,.07,4.28,.07,6.49,0,5.38-1.28,9.43-3.83,12.14-2.55,2.71-6.36,4.48-11.42,5.31l-1.04-3.24c.97-.41,1.77-.83,2.42-1.24Z"/><path class="cls-1" d="M23.05,36.02c0-3.08,.47-5.77,1.41-8.07,.94-2.3,2.2-4.22,3.76-5.76,1.56-1.54,3.37-2.69,5.42-3.45,2.05-.76,4.15-1.14,6.31-1.14,5.38,0,9.54,1.52,12.49,4.55,2.94,3.04,4.42,7.15,4.42,12.35,0,2.81-.41,5.34-1.24,7.59-.83,2.25-1.99,4.17-3.48,5.76-1.5,1.59-3.28,2.77-5.35,3.55-2.07,.78-4.35,1.17-6.83,1.17-2.07,0-4.11-.28-6.11-.83-2-.55-3.81-1.48-5.42-2.79-1.61-1.31-2.91-3.02-3.9-5.14-.99-2.12-1.48-4.71-1.48-7.8Zm23.6-2.55c0-4.05-.51-7.19-1.52-9.42-1.01-2.23-2.69-3.35-5.04-3.35-2.12,0-3.78,1.24-5,3.73-1.22,2.48-1.83,6.37-1.83,11.66,0,1.93,.11,3.73,.34,5.38,.23,1.66,.61,3.09,1.14,4.31,.53,1.22,1.22,2.17,2.07,2.86,.85,.69,1.92,1.04,3.21,1.04,4.42,0,6.62-5.4,6.62-16.22Z"/><path class="cls-1" d="M61.55,5.45c0-1.52,.53-2.81,1.59-3.86s2.35-1.59,3.86-1.59,2.81,.53,3.86,1.59c1.06,1.06,1.59,2.35,1.59,3.86s-.53,2.81-1.59,3.86c-1.06,1.06-2.35,1.59-3.86,1.59s-2.81-.53-3.86-1.59c-1.06-1.06-1.59-2.35-1.59-3.86Zm.83,28.36c0-2.81-.03-5.44-.1-7.9-.07-2.46-.22-4.93-.45-7.42,.64,.09,1.4,.17,2.28,.24,.87,.07,1.84,.1,2.9,.1,2.16,0,3.89-.11,5.18-.34-.23,2.48-.38,4.96-.45,7.42-.07,2.46-.1,5.1-.1,7.9v2.76c0,2.81,.03,5.45,.1,7.94s.22,4.88,.45,7.18c-.6-.09-1.35-.14-2.24-.14h-5.83c-.87,0-1.63,.05-2.28,.14,.23-2.3,.38-4.69,.45-7.18,.07-2.48,.1-5.13,.1-7.94v-2.76Z"/><path class="cls-1" d="M88.32,23.67c1.29-1.93,2.79-3.43,4.52-4.48,1.73-1.06,3.69-1.59,5.9-1.59,3.45,0,6.11,1,7.97,3,1.86,2,2.79,5.23,2.79,9.69,0,2.35-.05,4.42-.14,6.21-.09,1.79-.14,3.59-.14,5.38,0,1.47,.03,3.07,.1,4.8,.07,1.72,.15,3.39,.24,5-.6-.09-1.36-.14-2.28-.14h-5.8c-.92,0-1.68,.05-2.28,.14,.32-2.39,.53-5.21,.62-8.45,.09-3.24,.14-6.96,.14-11.14,0-2.9-.49-5.02-1.48-6.38-.99-1.36-2.38-2.04-4.17-2.04-2.07,0-3.59,.9-4.55,2.69-.97,1.79-1.45,4.28-1.45,7.45v2.76c0,2.81,.03,5.45,.1,7.94,.07,2.48,.22,4.88,.45,7.18-.6-.09-1.35-.14-2.24-.14h-5.83c-.87,0-1.63,.05-2.28,.14,.23-2.3,.38-4.69,.45-7.18s.1-5.13,.1-7.94v-2.76c0-2.81-.03-5.44-.1-7.9-.07-2.46-.22-4.93-.45-7.42,.83,.09,1.64,.17,2.45,.24,.8,.07,1.62,.1,2.45,.1s1.64-.03,2.45-.1c.8-.07,1.67-.15,2.59-.24l-.28,5.17h.14Z"/><path class="cls-1" d="M138.62,10.94c-1.13,1.96-2.04,4.05-2.73,6.28-.69,2.23-1.18,4.65-1.48,7.25-.3,2.6-.45,5.49-.45,8.66,0,5.43,.66,10.22,1.97,14.39s3.58,8.08,6.8,11.76l-1.86,1.73c-2.16-1.75-4.13-3.6-5.9-5.55-1.77-1.96-3.28-4.07-4.52-6.35-1.24-2.28-2.21-4.77-2.9-7.49-.69-2.71-1.04-5.7-1.04-8.97,0-3.73,.36-7.03,1.07-9.9,.71-2.87,1.71-5.45,3-7.73,1.29-2.28,2.82-4.35,4.59-6.21,1.77-1.86,3.71-3.67,5.83-5.42l1.79,1.79c-1.66,1.89-3.05,3.81-4.17,5.76Z"/><path class="cls-1" d="M184.75,46.82c-.28,.99-.46,1.97-.55,2.93-3.73,1.89-8.42,2.83-14.08,2.83-4,0-7.58-.56-10.73-1.69-3.15-1.13-5.82-2.71-8-4.76-2.19-2.05-3.85-4.47-5-7.28-1.15-2.81-1.73-5.84-1.73-9.11,0-4.78,.75-8.84,2.24-12.18,1.49-3.33,3.5-6.05,6-8.14,2.51-2.09,5.42-3.62,8.73-4.59,3.31-.97,6.78-1.45,10.42-1.45,1.2,0,2.46,.09,3.79,.28,1.33,.18,2.62,.43,3.86,.72,1.24,.3,2.43,.66,3.55,1.07,1.13,.41,2.08,.85,2.86,1.31-.46,1.15-.82,2.31-1.07,3.48-.25,1.17-.43,2.36-.52,3.55h-.97c-1.75-2.21-3.54-3.78-5.38-4.73-1.84-.94-4-1.41-6.49-1.41-1.84,0-3.69,.41-5.55,1.24-1.86,.83-3.55,2.09-5.07,3.79-1.52,1.7-2.75,3.88-3.69,6.52-.94,2.65-1.41,5.81-1.41,9.49s.48,6.57,1.45,9.07c.97,2.51,2.22,4.55,3.76,6.14,1.54,1.59,3.29,2.75,5.24,3.48,1.95,.74,3.92,1.1,5.9,1.1,1.1,0,2.23-.13,3.38-.38,1.15-.25,2.28-.6,3.38-1.04,1.1-.44,2.15-.98,3.14-1.62,.99-.64,1.85-1.36,2.59-2.14l.9,.55c-.37,.97-.69,1.94-.97,2.93Z"/><path class="cls-1" d="M221.04,56.58v3.45h-34.5v-3.45h34.5Z"/><path class="cls-1" d="M261.82,46.82c-.28,.99-.46,1.97-.55,2.93-3.73,1.89-8.42,2.83-14.08,2.83-4,0-7.58-.56-10.73-1.69-3.15-1.13-5.82-2.71-8-4.76-2.19-2.05-3.85-4.47-5-7.28-1.15-2.81-1.73-5.84-1.73-9.11,0-4.78,.75-8.84,2.24-12.18,1.49-3.33,3.5-6.05,6-8.14,2.51-2.09,5.42-3.62,8.73-4.59,3.31-.97,6.78-1.45,10.42-1.45,1.2,0,2.46,.09,3.8,.28,1.33,.18,2.62,.43,3.86,.72,1.24,.3,2.43,.66,3.55,1.07,1.13,.41,2.08,.85,2.86,1.31-.46,1.15-.82,2.31-1.07,3.48-.25,1.17-.43,2.36-.52,3.55h-.97c-1.75-2.21-3.54-3.78-5.38-4.73-1.84-.94-4-1.41-6.49-1.41-1.84,0-3.69,.41-5.55,1.24-1.86,.83-3.55,2.09-5.07,3.79-1.52,1.7-2.75,3.88-3.69,6.52-.94,2.65-1.41,5.81-1.41,9.49s.48,6.57,1.45,9.07c.97,2.51,2.22,4.55,3.76,6.14,1.54,1.59,3.29,2.75,5.24,3.48,1.96,.74,3.92,1.1,5.9,1.1,1.1,0,2.23-.13,3.38-.38,1.15-.25,2.28-.6,3.38-1.04,1.1-.44,2.15-.98,3.14-1.62,.99-.64,1.85-1.36,2.59-2.14l.9,.55c-.37,.97-.69,1.94-.97,2.93Z"/><path class="cls-1" d="M272.41,8.8c1.77,1.86,3.3,3.93,4.59,6.21,1.29,2.28,2.29,4.85,3,7.73,.71,2.88,1.07,6.18,1.07,9.9,0,3.27-.35,6.26-1.04,8.97-.69,2.71-1.66,5.21-2.9,7.49-1.24,2.28-2.75,4.39-4.52,6.35-1.77,1.95-3.74,3.81-5.9,5.55l-1.86-1.73c3.22-3.68,5.49-7.6,6.8-11.76s1.97-8.96,1.97-14.39c0-3.17-.15-6.06-.45-8.66-.3-2.6-.79-5.01-1.48-7.25-.69-2.23-1.6-4.32-2.73-6.28-1.13-1.95-2.52-3.88-4.17-5.76l1.79-1.79c2.12,1.75,4.06,3.55,5.83,5.42Z"/><path class="cls-1" d="M306.67,3.35c.46,.02,.94,.03,1.45,.03s.99-.01,1.45-.03c.46-.02,.94-.06,1.45-.1l-19.73,49.47c-.46-.05-.92-.08-1.38-.1-.46-.02-.94-.03-1.45-.03s-.99,.01-1.45,.03c-.46,.02-.94,.06-1.45,.1L305.29,3.24c.46,.05,.92,.08,1.38,.1Z"/></svg>