<?xml version="1.0" encoding="UTF-8"?><svg id="_イヤー_1" xmlns="http://www.w3.org/2000/svg" viewBox="0 0 308.53 68.38"><defs><style>.cls-1{fill:#fff;}</style></defs><path class="cls-1" d="M4.31,54.2c-1.5-.25-2.59-.61-3.28-1.07-.69-.46-1.04-1.13-1.04-2s.24-2.09,.72-3.66c.48-1.56,1.18-2.39,2.1-2.48,.09,0,.54,.09,1.35,.28,.8,.18,1.64,.28,2.52,.28,2.07,0,3.55-.56,4.45-1.69,.9-1.13,1.34-2.96,1.34-5.49V7.8c0-1.52,1.38-2.28,4.14-2.28h2.42c2.76,0,4.14,.76,4.14,2.28V40.09c0,4.55-1.2,8.11-3.59,10.66-2.39,2.55-6.07,3.83-11.04,3.83-1.33,0-2.75-.13-4.24-.38Z"/><path class="cls-1" d="M33.19,49.78c-2.85-3.2-4.28-7.81-4.28-13.83s1.42-10.63,4.28-13.8c2.85-3.17,7.01-4.76,12.49-4.76s9.63,1.59,12.46,4.76,4.24,7.77,4.24,13.8-1.41,10.64-4.24,13.83c-2.83,3.2-6.98,4.8-12.46,4.8s-9.64-1.6-12.49-4.8Zm6.07-13.8c0,7.02,2.13,10.52,6.38,10.52s6.38-3.51,6.38-10.52-2.13-10.52-6.38-10.52-6.38,3.51-6.38,10.52Z"/><path class="cls-1" d="M71.76,12.01c-2.76,0-4.14-.74-4.14-2.21V4.21c0-1.47,1.38-2.21,4.14-2.21h1.93c2.76,0,4.14,.74,4.14,2.21v5.59c0,1.47-1.38,2.21-4.14,2.21h-1.93Zm-4.14,39.95V20.01c0-1.47,1.38-2.21,4.14-2.21h1.93c2.76,0,4.14,.74,4.14,2.21v31.95c0,1.47-1.38,2.21-4.14,2.21h-1.93c-2.76,0-4.14-.74-4.14-2.21Z"/><path class="cls-1" d="M84.39,51.96V30.08c0-3.45-.14-5.87-.41-7.25-.28-1.38-.41-2.21-.41-2.48,0-.74,.93-1.29,2.79-1.66,1.86-.37,3.25-.55,4.17-.55s1.53,.09,1.83,.28c.3,.18,.54,.47,.72,.86,.18,.39,.32,.71,.41,.97,.09,.25,.2,.68,.31,1.28,.11,.6,.2,.97,.24,1.1,1.1-1.47,2.58-2.71,4.42-3.73,1.84-1.01,3.79-1.52,5.87-1.52,3.45,0,6,.91,7.66,2.73,1.66,1.82,2.48,4.63,2.48,8.45v23.39c0,1.47-1.38,2.21-4.14,2.21h-1.93c-2.76,0-4.14-.74-4.14-2.21V30.08c0-2.85-1.38-4.28-4.14-4.28-2.3,0-4.14,1.33-5.52,4v22.15c0,1.47-1.38,2.21-4.14,2.21h-1.93c-2.76,0-4.14-.74-4.14-2.21Z"/><path class="cls-1" d="M140.17,67.27c-6.9-9.89-10.35-20.92-10.35-33.09s3.45-23.19,10.35-33.09c.55-.74,1.18-1.1,1.9-1.1s1.54,.34,2.48,1.03c.94,.69,1.42,1.35,1.42,1.97s-.12,1.14-.35,1.55c-2.76,5.15-4.74,10.07-5.93,14.77-1.2,4.69-1.79,9.66-1.79,14.9s.6,10.2,1.79,14.87c1.2,4.67,3.17,9.58,5.93,14.73,.23,.41,.35,.93,.35,1.55s-.47,1.28-1.42,1.97c-.94,.69-1.77,1.04-2.48,1.04s-1.34-.37-1.9-1.1Z"/><path class="cls-1" d="M148.45,29.74c0-16.38,7.68-24.56,23.05-24.56,3.36,0,6.6,.46,9.73,1.38,3.13,.92,4.69,2.07,4.69,3.45,0,1.01-.54,2.35-1.62,4-1.08,1.66-2.04,2.48-2.86,2.48-.14,0-.62-.18-1.45-.55-2.39-1.1-5.29-1.66-8.69-1.66-7.96,0-11.94,5.21-11.94,15.63s3.93,15.63,11.8,15.63c3.31,0,6.49-.69,9.52-2.07,1.01-.46,1.61-.69,1.79-.69,.96,0,1.88,.79,2.76,2.38,.87,1.59,1.31,2.79,1.31,3.62,0,1.84-1.7,3.27-5.11,4.28-3.41,1.01-6.83,1.52-10.28,1.52-7.73,0-13.44-2.01-17.15-6.04-3.7-4.02-5.55-10.29-5.55-18.8Z"/><path class="cls-1" d="M187.02,56.51h35.54c1.38,0,2.07,1.15,2.07,3.45v.48c0,2.3-.69,3.45-2.07,3.45h-35.54c-1.38,0-2.07-1.15-2.07-3.45v-.48c0-2.3,.69-3.45,2.07-3.45Z"/><path class="cls-1" d="M224.56,29.74c0-16.38,7.68-24.56,23.05-24.56,3.36,0,6.6,.46,9.73,1.38,3.13,.92,4.69,2.07,4.69,3.45,0,1.01-.54,2.35-1.62,4-1.08,1.66-2.04,2.48-2.86,2.48-.14,0-.62-.18-1.45-.55-2.39-1.1-5.29-1.66-8.69-1.66-7.96,0-11.94,5.21-11.94,15.63s3.93,15.63,11.8,15.63c3.31,0,6.49-.69,9.52-2.07,1.01-.46,1.61-.69,1.79-.69,.97,0,1.88,.79,2.76,2.38,.87,1.59,1.31,2.79,1.31,3.62,0,1.84-1.7,3.27-5.11,4.28-3.4,1.01-6.83,1.52-10.28,1.52-7.73,0-13.44-2.01-17.15-6.04-3.7-4.02-5.55-10.29-5.55-18.8Z"/><path class="cls-1" d="M269.61,49.09c1.2-4.67,1.79-9.63,1.79-14.87s-.6-10.21-1.79-14.9c-1.2-4.69-3.17-9.61-5.93-14.77-.23-.41-.35-.93-.35-1.55s.47-1.28,1.42-1.97c.94-.69,1.77-1.03,2.48-1.03s1.35,.37,1.9,1.1c6.9,9.89,10.35,20.92,10.35,33.09s-3.45,23.19-10.35,33.09c-.55,.74-1.19,1.1-1.9,1.1s-1.54-.35-2.48-1.04c-.94-.69-1.42-1.35-1.42-1.97s.11-1.14,.35-1.55c2.76-5.15,4.74-10.06,5.93-14.73Z"/><path class="cls-1" d="M303.97,5.59h1.66c1.93,0,2.9,.37,2.9,1.1,0,.23-.07,.55-.21,.97l-20.08,49.75c-.55,1.38-1.96,2.07-4.21,2.07h-1.66c-1.98,0-2.97-.37-2.97-1.1,0-.09,.09-.41,.28-.97l20.08-49.75c.55-1.38,1.96-2.07,4.21-2.07Z"/></svg>