<?xml version="1.0" encoding="UTF-8"?><svg id="_イヤー_1" xmlns="http://www.w3.org/2000/svg" viewBox="0 0 316.93 63.99"><defs><style>.cls-1{fill:#fff;}</style></defs><path class="cls-1" d="M1.67,63.74c-.78,.14-1.31-.25-1.59-1.17-.23-.87,0-1.45,.69-1.73,1.79-.74,3.2-1.71,4.21-2.93,1.01-1.22,1.78-2.71,2.31-4.48,.53-1.77,.86-3.82,1-6.14,.14-2.32,.21-4.98,.21-7.97V15.03c0-.64-.03-1.29-.1-1.93-.07-.64-.24-1.22-.52-1.73-.28-.51-.71-.91-1.31-1.21-.6-.3-1.45-.45-2.55-.45-.51,0-.92-.05-1.24-.14-.32-.09-.51-.53-.55-1.31,0-.37,.1-.71,.31-1.04,.21-.32,.52-.48,.93-.48,1.47,.09,2.86,.15,4.17,.17,1.31,.02,2.66,.03,4.04,.03,2.76,0,5.63-.07,8.62-.21,.41,0,.72,.16,.93,.48,.21,.32,.31,.67,.31,1.04-.05,.78-.23,1.22-.55,1.31-.32,.09-.74,.14-1.24,.14-1.1,0-1.96,.15-2.55,.45-.6,.3-1.04,.7-1.31,1.21-.28,.51-.45,1.08-.52,1.73-.07,.64-.1,1.29-.1,1.93v26.63c0,2.76-.22,5.34-.66,7.73-.44,2.39-1.19,4.55-2.24,6.49-1.06,1.93-2.46,3.58-4.21,4.93-1.75,1.36-3.91,2.33-6.49,2.93Z"/><path class="cls-1" d="M40.93,18.41c2.39,0,4.58,.45,6.55,1.35,1.98,.9,3.68,2.08,5.11,3.55,1.43,1.47,2.52,3.17,3.28,5.11,.76,1.93,1.14,3.93,1.14,6,0,2.71-.51,5.13-1.52,7.25-1.01,2.12-2.29,3.89-3.83,5.31-1.54,1.43-3.27,2.51-5.18,3.24-1.91,.74-3.76,1.1-5.55,1.1-2.44,0-4.64-.45-6.59-1.35-1.96-.9-3.65-2.08-5.07-3.55-1.43-1.47-2.52-3.17-3.28-5.11-.76-1.93-1.14-3.93-1.14-6,0-2.71,.49-5.13,1.48-7.24,.99-2.12,2.25-3.89,3.79-5.31,1.54-1.43,3.27-2.51,5.17-3.24,1.91-.74,3.78-1.1,5.62-1.1Zm0,30.36c1.66,0,3.06-.39,4.21-1.17,1.15-.78,2.08-1.83,2.79-3.14,.71-1.31,1.23-2.83,1.55-4.55,.32-1.73,.48-3.55,.48-5.49,0-1.79-.17-3.51-.52-5.14-.35-1.63-.87-3.07-1.59-4.31-.71-1.24-1.65-2.22-2.79-2.93-1.15-.71-2.53-1.07-4.14-1.07-1.7,0-3.13,.38-4.28,1.14-1.15,.76-2.08,1.79-2.79,3.1-.71,1.31-1.22,2.82-1.52,4.52-.3,1.7-.45,3.52-.45,5.45,0,1.79,.16,3.51,.48,5.14,.32,1.63,.84,3.08,1.55,4.35,.71,1.27,1.64,2.27,2.79,3,1.15,.74,2.55,1.1,4.21,1.1Z"/><path class="cls-1" d="M71.91,43.39v1.76c0,.58,.1,1.08,.31,1.52,.21,.44,.56,.78,1.07,1.04,.51,.25,1.24,.38,2.21,.38,.41,0,.77,.03,1.07,.1,.3,.07,.47,.45,.52,1.14,0,.37-.09,.69-.28,.97-.18,.28-.46,.41-.83,.41-1.33-.09-2.56-.15-3.69-.17-1.13-.02-2.31-.03-3.55-.03s-2.42,.01-3.52,.03c-1.1,.02-2.32,.08-3.66,.17-.37,0-.64-.14-.83-.41-.18-.28-.28-.6-.28-.97,.09-.69,.28-1.07,.55-1.14,.28-.07,.64-.1,1.1-.1,.97,0,1.69-.13,2.17-.38,.48-.25,.83-.6,1.04-1.04,.21-.44,.31-.94,.31-1.52V25.83c0-.57-.1-1.08-.31-1.52-.21-.44-.55-.78-1.04-1.04-.48-.25-1.21-.38-2.17-.38-.41,0-.79-.06-1.14-.17-.34-.11-.52-.52-.52-1.21,0-.28,.09-.53,.28-.76,.18-.23,.46-.39,.83-.48,1.56-.23,2.85-.47,3.86-.72,1.01-.25,1.84-.48,2.48-.69,.64-.21,1.16-.38,1.55-.52,.39-.14,.77-.23,1.14-.28,.37-.04,.68,.02,.93,.21,.25,.18,.38,.55,.38,1.1v24.01Zm-3.86-33.67c-.51,0-1.02-.07-1.55-.21-.53-.14-1.01-.38-1.45-.72-.44-.35-.81-.78-1.1-1.31-.3-.53-.45-1.18-.45-1.97,0-.37,.1-.79,.31-1.28s.53-.93,.97-1.35c.44-.41,.98-.76,1.62-1.04,.64-.28,1.4-.41,2.28-.41,.41,0,.85,.08,1.31,.24,.46,.16,.89,.41,1.28,.76,.39,.35,.71,.78,.97,1.31,.25,.53,.38,1.19,.38,1.97,0,.97-.39,1.87-1.17,2.73-.78,.85-1.91,1.28-3.38,1.28Z"/><path class="cls-1" d="M90.54,23.72h.21c.69-.64,1.38-1.28,2.07-1.9s1.46-1.18,2.31-1.69c.85-.51,1.82-.92,2.9-1.24,1.08-.32,2.36-.48,3.83-.48,3.17,0,5.67,.94,7.49,2.83,1.82,1.89,2.73,4.37,2.73,7.45v16.46c0,.58,.1,1.08,.31,1.52,.21,.44,.56,.78,1.07,1.04,.51,.25,1.24,.38,2.21,.38,.41,0,.77,.03,1.07,.1,.3,.07,.47,.45,.52,1.14,0,.37-.09,.69-.28,.97-.18,.28-.46,.41-.83,.41-1.33-.09-2.56-.15-3.69-.17-1.13-.02-2.31-.03-3.55-.03s-2.42,.01-3.52,.03c-1.1,.02-2.32,.08-3.66,.17-.37,0-.64-.14-.83-.41-.18-.28-.28-.6-.28-.97,.05-.69,.22-1.07,.52-1.14,.3-.07,.66-.1,1.07-.1,.97,0,1.69-.13,2.17-.38,.48-.25,.83-.6,1.04-1.04,.21-.44,.32-.94,.34-1.52,.02-.57,.03-1.16,.03-1.76v-14.63c0-1.15-.2-2.14-.59-2.97-.39-.83-.9-1.51-1.52-2.04-.62-.53-1.33-.92-2.14-1.17-.81-.25-1.6-.38-2.38-.38-1.2,0-2.28,.17-3.24,.52-.97,.34-1.81,.77-2.52,1.28-.71,.51-1.31,1.02-1.79,1.55-.48,.53-.82,1-1,1.41v18.18c0,.58,.1,1.08,.31,1.52,.21,.44,.56,.78,1.07,1.04,.51,.25,1.24,.38,2.21,.38,.41,0,.77,.03,1.07,.1,.3,.07,.47,.45,.52,1.14,0,.37-.09,.69-.28,.97-.18,.28-.46,.41-.83,.41-1.33-.09-2.56-.15-3.69-.17-1.13-.02-2.31-.03-3.55-.03s-2.42,.01-3.52,.03c-1.1,.02-2.32,.08-3.66,.17-.37,0-.64-.14-.83-.41-.18-.28-.28-.6-.28-.97,.09-.69,.28-1.07,.55-1.14s.64-.1,1.1-.1c.97,0,1.69-.13,2.17-.38,.48-.25,.83-.6,1.04-1.04,.21-.44,.31-.94,.31-1.52V25.83c0-.57-.1-1.08-.31-1.52-.21-.44-.55-.78-1.04-1.04-.48-.25-1.21-.38-2.17-.38-.41,0-.79-.06-1.14-.17-.34-.11-.52-.52-.52-1.21,0-.28,.09-.53,.28-.76,.18-.23,.46-.39,.83-.48,1.56-.23,2.85-.47,3.86-.72,1.01-.25,1.84-.48,2.48-.69,.64-.21,1.15-.38,1.52-.52,.37-.14,.74-.23,1.1-.28,.37-.04,.68,.02,.93,.21,.25,.18,.38,.55,.38,1.1v4.35Z"/><path class="cls-1" d="M143.71,61.88c-5.01-3.45-8.81-7.84-11.39-13.18-2.58-5.34-3.86-11.22-3.86-17.66s1.3-12.18,3.9-17.49c2.6-5.31,6.4-9.74,11.42-13.28,.46-.28,.83-.33,1.1-.17,.28,.16,.48,.4,.62,.72,.28,.69,.11,1.31-.48,1.86-1.56,1.52-3,3.31-4.31,5.38-1.31,2.07-2.44,4.32-3.38,6.76-.94,2.44-1.68,5.04-2.21,7.8-.53,2.76-.79,5.59-.79,8.49s.26,5.73,.79,8.49c.53,2.76,1.25,5.36,2.17,7.8,.92,2.44,2.04,4.68,3.35,6.73,1.31,2.05,2.75,3.83,4.31,5.35,.6,.55,.76,1.17,.48,1.86-.14,.32-.35,.56-.62,.72-.28,.16-.65,.1-1.1-.17Z"/><path class="cls-1" d="M185.59,15.3c0,.97-.15,1.9-.45,2.79-.3,.9-.75,1.69-1.35,2.38-.6,.69-1.35,1.24-2.24,1.66s-1.9,.62-3,.62c-.69,0-1.28-.1-1.76-.31-.48-.21-.87-.45-1.17-.72-.3-.28-.51-.55-.62-.83-.12-.28-.17-.48-.17-.62,0-.09,.18-.24,.55-.45,.37-.21,.76-.51,1.17-.9,.41-.39,.8-.9,1.17-1.52,.37-.62,.55-1.39,.55-2.31,0-2.07-.69-3.71-2.07-4.93-1.38-1.22-3.34-1.83-5.86-1.83-2.07,0-3.99,.45-5.76,1.35-1.77,.9-3.3,2.21-4.59,3.93-1.29,1.73-2.29,3.84-3,6.35-.71,2.51-1.07,5.39-1.07,8.66,0,2.76,.38,5.35,1.14,7.76,.76,2.42,1.83,4.52,3.21,6.31,1.38,1.79,3.04,3.21,4.97,4.24,1.93,1.04,4.07,1.55,6.42,1.55,2.48,0,4.6-.51,6.35-1.52,1.75-1.01,3.36-2.69,4.83-5.04,.41-.78,1.15-.85,2.21-.21,.41,.28,.74,.61,.97,1,.23,.39,.18,.79-.14,1.21-1.33,1.66-2.59,3-3.76,4.04-1.17,1.04-2.39,1.84-3.66,2.42-1.27,.57-2.65,.97-4.14,1.17-1.5,.21-3.21,.31-5.14,.31-2.9,0-5.64-.52-8.21-1.55-2.58-1.04-4.84-2.54-6.8-4.52-1.96-1.98-3.5-4.38-4.62-7.21-1.13-2.83-1.69-6.01-1.69-9.56s.53-6.69,1.59-9.59c1.06-2.9,2.56-5.37,4.52-7.42,1.95-2.05,4.32-3.63,7.11-4.76,2.78-1.13,5.9-1.69,9.35-1.69,1.66,0,3.38,.16,5.18,.48,1.79,.32,3.44,.86,4.93,1.62,1.49,.76,2.71,1.76,3.66,3,.94,1.24,1.41,2.78,1.41,4.62Z"/><path class="cls-1" d="M194.08,58.98c-.51,0-.9-.2-1.17-.59-.28-.39-.41-.82-.41-1.28,0-.51,.14-.94,.41-1.31,.28-.37,.67-.55,1.17-.55h31.6c.51,0,.9,.18,1.17,.55,.28,.37,.41,.8,.41,1.31,0,.46-.14,.89-.41,1.28-.28,.39-.67,.59-1.17,.59h-31.6Z"/><path class="cls-1" d="M272.32,15.3c0,.97-.15,1.9-.45,2.79-.3,.9-.75,1.69-1.35,2.38-.6,.69-1.35,1.24-2.24,1.66s-1.9,.62-3,.62c-.69,0-1.28-.1-1.76-.31-.48-.21-.87-.45-1.17-.72-.3-.28-.51-.55-.62-.83-.12-.28-.17-.48-.17-.62,0-.09,.18-.24,.55-.45s.76-.51,1.17-.9c.41-.39,.8-.9,1.17-1.52,.37-.62,.55-1.39,.55-2.31,0-2.07-.69-3.71-2.07-4.93-1.38-1.22-3.34-1.83-5.86-1.83-2.07,0-3.99,.45-5.76,1.35-1.77,.9-3.3,2.21-4.59,3.93-1.29,1.73-2.29,3.84-3,6.35-.71,2.51-1.07,5.39-1.07,8.66,0,2.76,.38,5.35,1.14,7.76s1.83,4.52,3.21,6.31c1.38,1.79,3.04,3.21,4.97,4.24,1.93,1.04,4.07,1.55,6.42,1.55,2.48,0,4.6-.51,6.35-1.52,1.75-1.01,3.36-2.69,4.83-5.04,.41-.78,1.15-.85,2.21-.21,.41,.28,.74,.61,.97,1,.23,.39,.18,.79-.14,1.21-1.33,1.66-2.59,3-3.76,4.04-1.17,1.04-2.39,1.84-3.66,2.42-1.27,.57-2.65,.97-4.14,1.17-1.5,.21-3.21,.31-5.14,.31-2.9,0-5.64-.52-8.21-1.55-2.58-1.04-4.84-2.54-6.8-4.52-1.96-1.98-3.5-4.38-4.62-7.21-1.13-2.83-1.69-6.01-1.69-9.56s.53-6.69,1.59-9.59c1.06-2.9,2.56-5.37,4.52-7.42,1.95-2.05,4.32-3.63,7.11-4.76,2.78-1.13,5.9-1.69,9.35-1.69,1.66,0,3.38,.16,5.17,.48,1.79,.32,3.44,.86,4.93,1.62,1.49,.76,2.71,1.76,3.66,3,.94,1.24,1.41,2.78,1.41,4.62Z"/><path class="cls-1" d="M276.05,61.88c-.46,.28-.83,.33-1.1,.17-.28-.16-.48-.4-.62-.72-.28-.69-.12-1.31,.48-1.86,1.56-1.52,3-3.3,4.31-5.35,1.31-2.05,2.43-4.29,3.35-6.73,.92-2.44,1.64-5.04,2.17-7.8,.53-2.76,.79-5.59,.79-8.49s-.27-5.73-.79-8.49c-.53-2.76-1.27-5.36-2.21-7.8-.94-2.44-2.07-4.69-3.38-6.76-1.31-2.07-2.75-3.86-4.31-5.38-.6-.55-.76-1.17-.48-1.86,.14-.32,.35-.56,.62-.72,.28-.16,.64-.1,1.1,.17,5.01,3.54,8.82,7.97,11.42,13.28,2.6,5.31,3.9,11.14,3.9,17.49s-1.29,12.33-3.86,17.66c-2.58,5.34-6.37,9.73-11.39,13.18Z"/><path class="cls-1" d="M298.13,62.71c-.18,.51-.49,.86-.93,1.07-.44,.21-.86,.26-1.28,.17-.51-.09-.91-.32-1.21-.69-.3-.37-.4-.81-.31-1.31L313.03,3.23c.18-.51,.49-.87,.93-1.1,.44-.23,.89-.3,1.35-.21,.51,.09,.92,.35,1.24,.76,.32,.41,.44,.85,.35,1.31l-18.77,58.72Z"/></svg>