<svg xmlns="http://www.w3.org/2000/svg" viewBox="0 0 60 48.76"><defs><style>.cls-1{fill:#3d97d2;}</style></defs><g id="レイヤー_2" data-name="レイヤー 2"><g id="design"><path class="cls-1" d="M18.87,48.76c22.64,0,35-18.76,35-35q0-.81,0-1.59A25.17,25.17,0,0,0,60,5.77a24.68,24.68,0,0,1-7.07,1.94A12.32,12.32,0,0,0,58.34.9a24.63,24.63,0,0,1-7.81,3,12.32,12.32,0,0,0-21,11.23A35,35,0,0,1,4.18,2.25,12.32,12.32,0,0,0,8,18.69a12.25,12.25,0,0,1-5.58-1.54v.16a12.31,12.31,0,0,0,9.87,12.06A12.36,12.36,0,0,1,9,29.81a11.75,11.75,0,0,1-2.31-.23,12.3,12.3,0,0,0,11.5,8.55A24.68,24.68,0,0,1,2.94,43.4,23.7,23.7,0,0,1,0,43.23a34.88,34.88,0,0,0,18.87,5.53"/></g></g></svg>